<svg width="72" height="32" viewBox="0 0 72 32" fill="none" xmlns="http://www.w3.org/2000/svg">
<path d="M6.58139 20.5772C6.86722 21.9148 7.52226 22.9474 8.5465 23.6748C9.57074 24.3788 10.8213 24.7308 12.2981 24.7308C14.3466 24.7308 15.8829 24.0034 16.9072 22.5484L20.0871 24.3788C18.3244 26.9367 15.7162 28.2156 12.2623 28.2156C9.35636 28.2156 7.01014 27.3474 5.22364 25.6108C3.43718 23.8508 2.54395 21.6332 2.54395 18.958C2.54395 16.3298 3.42527 14.1356 5.18792 12.3756C6.95059 10.5922 9.21345 9.70044 11.9765 9.70044C14.5967 9.70044 16.7404 10.6039 18.4078 12.4108C20.099 14.2178 20.9446 16.4119 20.9446 18.9932C20.9446 19.3922 20.8969 19.9202 20.8017 20.5772H6.58139ZM6.54566 17.4796H17.0501C16.7881 16.0482 16.1807 14.9687 15.2279 14.2412C14.2989 13.5138 13.2032 13.15 11.9408 13.15C10.5116 13.15 9.32063 13.5372 8.36785 14.3116C7.41507 15.086 6.80767 16.142 6.54566 17.4796ZM42.419 9.70044C44.4436 9.70044 46.0753 10.3458 47.3139 11.6364C48.5525 12.9271 49.1718 14.6636 49.1718 16.846V27.758H45.3131V17.0924C45.3131 15.8722 45.0034 14.9335 44.3841 14.2764C43.7648 13.5959 42.9192 13.2556 41.8473 13.2556C40.6563 13.2556 39.7036 13.6428 38.989 14.4172C38.2982 15.1916 37.9528 16.3532 37.9528 17.902V27.758H34.094V17.0924C34.094 15.8722 33.7963 14.9335 33.2008 14.2764C32.6291 13.5959 31.8074 13.2556 30.7355 13.2556C29.5683 13.2556 28.6156 13.6546 27.8771 14.4524C27.1387 15.2268 26.7695 16.3767 26.7695 17.902V27.758H22.9108V10.158H26.7695V12.27C27.9129 10.557 29.616 9.70044 31.8788 9.70044C34.1655 9.70044 35.8567 10.6274 36.9524 12.4812C38.1434 10.6274 39.9656 9.70044 42.419 9.70044ZM54.9095 20.5772C55.1953 21.9148 55.8503 22.9474 56.8746 23.6748C57.8988 24.3788 59.1493 24.7308 60.6262 24.7308C62.6746 24.7308 64.211 24.0034 65.2352 22.5484L68.4152 24.3788C66.6525 26.9367 64.0443 28.2156 60.5904 28.2156C57.6844 28.2156 55.3382 27.3474 53.5518 25.6108C51.7653 23.8508 50.8721 21.6332 50.8721 18.958C50.8721 16.3298 51.7534 14.1356 53.516 12.3756C55.2787 10.5922 57.5415 9.70044 60.3046 9.70044C62.9247 9.70044 65.0685 10.6039 66.7359 12.4108C68.4271 14.2178 69.2727 16.4119 69.2727 18.9932C69.2727 19.3922 69.225 19.9202 69.1297 20.5772H54.9095ZM54.8737 17.4796H65.3782C65.1161 16.0482 64.5087 14.9687 63.556 14.2412C62.627 13.5138 61.5313 13.15 60.2689 13.15C58.8397 13.15 57.6487 13.5372 56.6959 14.3116C55.7432 15.086 55.1357 16.142 54.8737 17.4796Z" fill="#089216"/>
<path d="M71.5219 20.5425H1.2937V30.0912H71.5219V20.5425Z" fill="white"/>
</svg>
